<svg id="Layer_1" data-name="Layer 1" xmlns="http://www.w3.org/2000/svg" xmlns:xlink="http://www.w3.org/1999/xlink" viewBox="0 0 741 286"><defs><style>.cls-1{fill:url(#linear-gradient);}.cls-2{fill:url(#linear-gradient-2);}.cls-3{fill:url(#linear-gradient-3);}.cls-4{fill:url(#linear-gradient-4);}.cls-5{fill:url(#linear-gradient-5);}.cls-6{fill:url(#linear-gradient-6);}.cls-7{fill:#fff;}</style><linearGradient id="linear-gradient" x1="67.83" y1="184.13" x2="174.56" y2="82.58" gradientUnits="userSpaceOnUse"><stop offset="0" stop-color="#380000"/><stop offset="0.12" stop-color="#3b0101"/><stop offset="0.2" stop-color="#440304"/><stop offset="0.28" stop-color="#54070a"/><stop offset="0.35" stop-color="#6b0d12"/><stop offset="0.42" stop-color="#88141d"/><stop offset="0.48" stop-color="#ab1d29"/><stop offset="0.48" stop-color="#ac1d2a"/><stop offset="0.63" stop-color="#f48a7c"/><stop offset="0.65" stop-color="#f27269"/><stop offset="0.68" stop-color="#f05753"/><stop offset="0.7" stop-color="#ef4141"/><stop offset="0.74" stop-color="#ed3034"/><stop offset="0.78" stop-color="#ed252a"/><stop offset="0.84" stop-color="#ec1e25"/><stop offset="1" stop-color="#ec1c23"/></linearGradient><linearGradient id="linear-gradient-2" x1="100.24" y1="189.65" x2="165.65" y2="119.65" gradientUnits="userSpaceOnUse"><stop offset="0" stop-color="#380000"/><stop offset="0.12" stop-color="#3b0101"/><stop offset="0.21" stop-color="#450305"/><stop offset="0.3" stop-color="#55070b"/><stop offset="0.37" stop-color="#6c0d13"/><stop offset="0.45" stop-color="#8a141e"/><stop offset="0.51" stop-color="#ac1d2a"/><stop offset="0.76" stop-color="#f48a7c"/><stop offset="0.94" stop-color="#ec1c23"/></linearGradient><linearGradient id="linear-gradient-3" x1="133.51" y1="190.71" x2="176.63" y2="125.91" gradientUnits="userSpaceOnUse"><stop offset="0" stop-color="#380000"/><stop offset="0.08" stop-color="#3d0102"/><stop offset="0.18" stop-color="#4c0507"/><stop offset="0.28" stop-color="#650b10"/><stop offset="0.4" stop-color="#87141d"/><stop offset="0.5" stop-color="#ac1d2a"/><stop offset="0.71" stop-color="#f48a7c"/><stop offset="0.95" stop-color="#ec1c23"/></linearGradient><linearGradient id="linear-gradient-4" x1="164.13" y1="189.5" x2="189.38" y2="134.51" gradientUnits="userSpaceOnUse"><stop offset="0" stop-color="#380000"/><stop offset="0.4" stop-color="#ac1d2a"/><stop offset="0.57" stop-color="#f48a7c"/><stop offset="1" stop-color="#ec1c23"/></linearGradient><linearGradient id="linear-gradient-5" x1="188.97" y1="195.23" x2="203.18" y2="150.8" gradientUnits="userSpaceOnUse"><stop offset="0" stop-color="#380000"/><stop offset="0.36" stop-color="#ac1d2a"/><stop offset="0.67" stop-color="#f48a7c"/><stop offset="1" stop-color="#ec1c23"/></linearGradient><linearGradient id="linear-gradient-6" x1="212.7" y1="202.02" x2="219.93" y2="167.18" gradientUnits="userSpaceOnUse"><stop offset="0" stop-color="#380000"/><stop offset="0.39" stop-color="#ac1d2a"/><stop offset="0.51" stop-color="#cb4b4d"/><stop offset="0.65" stop-color="#e8796f"/><stop offset="0.72" stop-color="#f48a7c"/><stop offset="1" stop-color="#ec1c23"/></linearGradient></defs><title>primus_gradient</title><g id="layer101"><path class="cls-1" d="M15,264.6c0-.3,3.5-3.3,7.8-6.7,24.7-20.1,53.9-48.7,71.7-70.3,26.5-32.4,43.3-62.8,53-96.2,4.4-15.3,5.8-24.9,6.4-46.9.5-17,.8-19.9,1.4-15a46.54,46.54,0,0,0,2.3,9.3c4.8,10.4,6.2,41.6,3,61.7-5.9,35.9-22.1,72.3-47.7,106.5-11.2,15.1-19.8,24.9-37.8,43.3L60.6,265H43.9l8.3-7.7c61.3-56.8,93.7-108.1,103.7-164.2,1.7-9.2,2.1-15.2,1.9-30.5l-.1-19.1-.8,16c-1.4,30-7.9,53.6-23,83.8-18.5,36.8-50.1,75.4-91.2,111.4L30.9,265H23C18.6,265,15,264.8,15,264.6Z"/><path class="cls-2" d="M79.6,258.8c23.4-24.9,33.5-37.3,46.7-57.4,14.2-21.5,25.5-45,31.2-64.7,5.2-18,6.9-30,6.9-49.7.1-10.2-.2-21.1-.7-24.3-1-7.7.5-6.6,3.5,2.6,2.1,6.7,2.3,8.9,2.3,30.2,0,18.6-.4,24.7-1.9,32-8.7,41.9-27.1,78.1-59.4,117-4.2,5-10,11.6-13.1,14.8L89.6,265H73.7Z"/><path class="cls-3" d="M111.1,255.4c36.6-43.5,56.4-84.8,61.9-128.7,1.2-9.3.9-37.5-.5-48.2-.5-3.9-.5-3.9,2.9,2.5,3,5.7,3.6,8.2,4.6,18.5,2.9,27.8-1.8,59.2-13.1,87.8-8.7,21.9-20.2,41.8-37.1,64.5L119.9,265H103Z"/><path class="cls-4" d="M133.6,263.8l7.6-10.7c21.3-29.3,36.8-64.4,42.3-95.1,2.6-14.9,3.1-39.2,1-52.8-.9-6.3-1.5-11.6-1.3-11.8s2.1,2.6,4.2,6.2c3.3,5.5,4.1,8.1,5.2,16.7,6,45-7.5,95-37.8,140.2l-5.4,8-8.3.3C134.6,265,133,264.8,133.6,263.8Z"/><path class="cls-5" d="M163,264.5c0-.3,2.5-4.7,5.5-9.8,15.4-25.7,25.7-53.2,30-79.9,2-12.8,2-37.6-.1-51.4-.8-5.8-1.4-10.8-1.2-11s2.3,2.3,4.6,5.6c4.8,6.7,5.7,10.3,7.3,28.4,3,34.8-6.5,75.2-25.9,110.4l-4.6,8.2h-7.8C166.5,265,163,264.8,163,264.5Z"/><path class="cls-6" d="M198.2,252a220.4,220.4,0,0,0,15.5-46.9c2.5-11.5,2.7-14.5,2.7-34.6,0-16.9-.4-24-1.7-30.4-2.2-10.6-2.1-10.9.4-8,9.7,11.1,10.3,12.7,12.1,37.9.9,13.1.8,17.7-.6,30-2.4,21.1-9.4,46.8-16.7,61.3L208,265H192.2Z"/><path class="cls-7" d="M248.4,263.7c-.3-.8-.4-4.7-.2-8.8l.3-7.4,5.3-.3c3.1-.2,5.2.1,5.2.7s-1.8,1.1-4,1.1c-3.8,0-4,.2-4,3s.2,3,4.1,3c2.4,0,3.8.4,3.4,1s-2.2,1-4.1,1c-3.2,0-3.4.2-3.4,3.4C251,264,249.4,266.1,248.4,263.7Z"/><path class="cls-7" d="M269,256c0-5.3.4-9,1-9s1,3.7,1,9-.4,9-1,9S269,261.3,269,256Z"/><path class="cls-7" d="M282.5,263.8c-1-2.6-.1-16.1,1.1-16.5.7-.2,3.5,2.9,6.3,6.8l5.1,7.3v-7.2c0-4.1.4-7.2,1-7.2s1,3.7,1,9c0,6.5-.3,9-1.2,9-.7,0-3.3-3.1-5.8-6.8l-4.5-6.7-.3,6C284.9,263.6,283.6,266.6,282.5,263.8Z"/><path class="cls-7" d="M306.9,262.8c2.8-7.1,7.1-15.8,7.9-15.8s4.6,8.1,7.9,16.8c.3.6,0,1.2-.6,1.2s-1.6-1.1-2.1-2.5c-.8-2.1-1.6-2.5-5.3-2.5s-4.6.4-5.5,2.5C307.7,265.7,305.7,265.9,306.9,262.8Zm9.6-8.5c-.9-2-1.7-3.8-1.8-3.9a13.89,13.89,0,0,0-1.9,3.7l-1.7,3.9H318Z"/><path class="cls-7" d="M332,256c0-6.5.3-9,1.3-9,.6,0,3.2,3,5.7,6.7l4.5,6.6.5-6.2c.3-3.4,1-6.1,1.5-6.1,1.4,0,1.3,16.2-.1,16.7-.6.2-3.3-2.9-6-6.8l-4.9-7.2-.3,7.2C333.8,268.2,332,266.7,332,256Z"/><path class="cls-7" d="M359.5,262.5c-3.3-3.2-3.4-9.3-.2-13,2.7-3.3,8.9-3.7,11.6-1,1.7,1.9,1.5,1.9-4.7-.1-1-.3-2.9.4-4.5,1.6-5.2,4.1-2.7,13,3.7,13,1.7,0,3.7-.5,4.4-1.2s1.5-.8,1.9-.4c1.3,1.3-2.9,3.6-6.4,3.6A7.58,7.58,0,0,1,359.5,262.5Z"/><path class="cls-7" d="M382,256c0-5.3.4-9,1-9s1,3.7,1,9-.4,9-1,9S382,261.3,382,256Z"/><path class="cls-7" d="M393.2,264.2c5-12.3,7.4-17.2,8.3-17.2.7,0,2.1,2.4,3.3,5.3s2.7,6.9,3.6,9c1.8,4.1.3,5.3-1.6,1.2-.9-2.1-1.8-2.5-5.5-2.5s-4.5.4-5.3,2.5c-.5,1.4-1.4,2.5-2.1,2.5S393,264.6,393.2,264.2ZM403.3,254c-.9-2.2-1.8-3.9-1.9-3.7a41.75,41.75,0,0,0-1.9,4L398,258h6.8Z"/><path class="cls-7" d="M419,256c0-5.3.4-9,1-9s1,3.3,1,8v8h4c2.2,0,4,.5,4,1s-2.2,1-5,1h-5Z"/><path class="cls-7" d="M452.3,264.3c-2.8-1.1-1.1-2.3,2.6-1.7,3.1.5,3.9.3,4.5-1.2.8-2.1,0-2.9-4.5-5.2-5.9-2.9-4.7-9.4,1.7-9.4,2.6,0,5.2,1.7,4.2,2.8-.3.3-1.5,0-2.7-.8-1.7-1.1-2.3-1-3.7.4-2.3,2.2-1.2,4.4,3,6.2s5.5,5,3,7.7C458.8,264.9,455,265.5,452.3,264.3Z"/><path class="cls-7" d="M474.9,263.7a10.75,10.75,0,0,1-2.8-12.9,10.43,10.43,0,0,1,4.5-3.4c8.1-3.4,15.4,5.1,11.2,12.9-1.7,3.3-3.9,4.6-7.8,4.6A10.09,10.09,0,0,1,474.9,263.7Zm10.5-2.9a9.91,9.91,0,0,0,1.6-5.1c0-3.3-4-7.7-7-7.7s-7,4.4-7,7.7c0,4.7,2.5,7.3,7,7.3C482.9,263,484.3,262.4,485.4,260.8Z"/><path class="cls-7" d="M499,256c0-5.3.4-9,1-9s1,3.3,1,8v8h4c2.2,0,4,.5,4,1s-2.2,1-5,1h-5Z"/><path class="cls-7" d="M519.6,262.8c-1.8-2.5-2.3-15.8-.6-15.8.6,0,1,2.9,1,6.8,0,7.3,1,9.2,4.7,9.2,3.1,0,4.3-2.8,4.3-9.9,0-3.4.4-6.1,1-6.1,1.4,0,1.2,12-.3,15C527.9,265.6,521.9,266.1,519.6,262.8Z"/><path class="cls-7" d="M546,257v-8h-3c-1.6,0-3-.4-3-1s3-1,7-1,7,.4,7,1-1.3,1-3,1h-3v8c0,4.7-.4,8-1,8S546,261.7,546,257Z"/><path class="cls-7" d="M563,256c0-5.3.4-9,1-9s1,3.7,1,9-.4,9-1,9S563,261.3,563,256Z"/><path class="cls-7" d="M578.2,262.8c-6.4-7-1-17.9,8.1-16.1,6.5,1.3,9.1,11,4.2,15.8C587.3,265.8,581.2,265.9,578.2,262.8Zm11.3-2.2c3.9-5.8-1-13.9-7.1-11.9-5.2,1.7-6.8,8.8-2.8,12.7C582.1,263.9,587.7,263.4,589.5,260.6Z"/><path class="cls-7" d="M603.5,263.8c-1-2.6-.1-16.1,1.1-16.5.7-.2,3.5,2.9,6.3,6.8l5.1,7.3v-7.2c0-4.1.4-7.2,1-7.2s1,3.7,1,9.1c0,10.8-.6,11-7,1.8l-4.5-6.4-.3,6C605.9,263.6,604.6,266.6,603.5,263.8Z"/><path class="cls-7" d="M629,263.5c-1.1-1.3-.6-1.4,3.4-.9,4.4.6,4.6.5,4.6-1.7,0-1.7-1-2.9-3.8-4.4-4.7-2.5-5.6-6.6-1.9-9a4.73,4.73,0,0,1,5.1-.5c1.5.5,2.4,1.4,2.1,2s-1.2.7-2.5,0c-2.6-1.4-5-.2-5,2.5,0,1.6,1,2.6,3.8,3.7,4.4,1.7,5.7,4.6,3.5,7.7C636.6,265.4,630.9,265.8,629,263.5Z"/><path class="cls-7" d="M663,256c0-5.3.4-9,1-9s1,3.3,1,8v8h4c2.2,0,4,.5,4,1s-2.2,1-5,1h-5Z"/><path class="cls-7" d="M684,257c0-7.8-.1-8-2.4-8-1.4,0-2.8-.4-3.1-1s2-1,6.4-1c4.1,0,7.1.4,7.1,1s-1.3,1-3,1h-3v8c0,4.7-.4,8-1,8S684,261.7,684,257Z"/><path class="cls-7" d="M701,256.1V247h4.6c3.7,0,5.1.5,7.5,2.9,6,6.1,2.4,14-6.9,14.9l-5.2.5Zm9.3,5.8c2.9-1.6,3.7-2.8,3.7-6.1,0-3.9-3.2-6.8-7.5-6.8H703v7c0,6.8.1,7,2.6,7A12.45,12.45,0,0,0,710.3,261.9Z"/><path class="cls-7" d="M383.3,221.4c-5.9-2.2-12.9-10.1-25.3-28.7-10-15.1-10.6-15.7-13.4-15.2a48.7,48.7,0,0,1-7.2.5H333v19.8c0,20.5.3,22.2,4.2,22.2,1,0,1.8.5,1.8,1s-4.7,1-12,1-12-.4-12-1,.9-1,2-1a4.16,4.16,0,0,0,3-1.9c.6-1.3,1-16.8,1-43.5,0-44.8,0-44.6-5.3-44.6-1.5,0-1.8-.3-1-1.1s7.5-1,22-.7c18.9.4,21.3.6,25.8,2.6,6.9,3.2,9.3,5.7,11.1,11.9,3.3,11.5-1,20.7-14.5,31-.8.6,18.7,28.7,24.1,34.7,7.9,8.9,15.4,11.5,23.5,8.1,2-.8,3.8-1.3,4.1-1.1.9,1-1.3,2.9-5.7,4.8C398.9,222.8,388.7,223.4,383.3,221.4Zm-29.7-49.3c7.3-3.3,11-10.5,10.1-19.6-1.4-13.4-9.5-20.5-23.7-20.5h-7v42h8.3C347.1,174,350.7,173.4,353.6,172.1Z"/><path class="cls-7" d="M592.9,221.6a28.48,28.48,0,0,1-16.4-10c-5.1-6.7-5.5-10.1-5.5-45.7,0-35.2-.1-35.9-5.1-35.9-1.1,0-1.7-.4-1.4-1,.7-1.1,23.8-1.4,24.9-.3.3.4-.8,1.2-2.6,1.7l-3.3,1.1V166c0,34,0,34.6,2.3,38.8,7.9,14.7,29.4,16,43.5,2.4l3.7-3.6V169.5c0-36.2-.3-38.7-4.8-39.3-1.2-.2-2-.8-1.7-1.3.8-1.3,24.5-1.2,24.5.1,0,.6-.7,1-1.5,1a6.73,6.73,0,0,0-3.5,2c-1.9,1.9-2,3.3-2,41.4,0,21.6.3,40.8.6,42.5.5,2.5,1.3,3.3,3.5,3.8,5.8,1.1,2.7,2.3-6.1,2.3h-8.9l-.3-6.5-.3-6.5-3.5,3a46.78,46.78,0,0,1-21,9.9C600.3,223.2,600.1,223.2,592.9,221.6Z"/><path class="cls-7" d="M246,221c0-.5.9-1,1.9-1a5,5,0,0,0,3.5-2.2c1.4-1.9,1.6-7.6,1.6-42,0-23-.4-40.7-1-42.2a5.57,5.57,0,0,0-3.5-3.2c-5.8-1.4-.5-2.4,13.3-2.4,25.4.1,34.7,2.6,40.7,10.9,2.8,4,3,4.9,3,13.1s-.2,9.1-3,13.2c-4.1,5.7-11.8,9.6-20.7,10.5-4.8.4-6.8.3-6.8-.6,0-.6,1.2-1.1,2.8-1.1,3.4,0,10.1-3.1,12.4-5.6,6.4-7.3,6.2-20.8-.5-28.9-3.9-4.8-7.3-6.2-17.5-7l-8.2-.8v41.4c0,22.8.3,42.4.6,43.7a4.27,4.27,0,0,0,3.5,2.9c6.5,1.3,2.2,2.3-9.6,2.3C250.8,222,246,221.6,246,221Z"/><path class="cls-7" d="M416,221.1c0-.5,1.3-1.1,2.9-1.4,2.2-.5,3-1.3,3.5-3.8.3-1.7.6-20.5.6-41.8,0-41.1-.3-43.3-4.8-43.9-1.2-.2-2-.8-1.7-1.3.8-1.2,24.2-1.2,24.9,0,.3.5-.8,1.1-2.4,1.5a4.87,4.87,0,0,0-4,3.1c-1.1,2.9-1.4,77.2-.4,82.4.5,2.5,1.3,3.3,3.5,3.8,6.5,1.3,2.2,2.3-9.6,2.3C421.6,222,416,221.6,416,221.1Z"/><path class="cls-7" d="M445,221c0-.5.8-1,1.9-1a4.34,4.34,0,0,0,2.9-1.3c.6-.7,3.6-19.2,6.7-41.2,5.6-39.5,5.6-39.8,3.8-42.4a18.87,18.87,0,0,0-5.3-4.3c-4.5-2.3-2.5-3,7.4-2.6l7.7.3,16.1,37.3c8.8,20.5,16.2,37.1,16.4,37s7.4-17,16.2-37.3l16-37,7.6-.3c7.9-.3,9.9.8,4.6,2.6a5.09,5.09,0,0,0-3.6,3.9c-.8,2.9,9,77.7,10.7,82.1a5.16,5.16,0,0,0,2.9,2.9c4.9,1.3,1.1,2.3-8.5,2.3-6.3,0-10.5-.4-10.5-1s.6-1,1.4-1a2.59,2.59,0,0,0,2.1-1.1c.7-1.1-8.7-70.9-9.5-70.9-.3,0-7.7,16.7-16.5,37s-16.3,37-16.6,37-7.9-17-17-37.7-16.5-37-16.6-36.2c-.7,3.7-8.2,59.1-8.9,64.7-.6,5.9-.5,6.4,1.5,6.9,4.5,1.1,1.8,2.3-5.4,2.3C448.2,222,445,221.6,445,221Z"/><path class="cls-7" d="M659,208.1c0-13.6,1.2-18.3,2.2-8.4,1.1,11.3,7.2,16.9,19.6,18,9.2.8,15.1-.2,20-3.4a17.33,17.33,0,0,0,8.2-14.9c0-9.1-4.8-13.6-20.9-19.4-10.5-3.9-17-7.2-19.8-10.2-6.5-6.9-8.2-19.2-3.9-28.4,4.8-10.3,14.8-15.1,28.9-14.1,10.3.8,12.5,2,14.8,8.2,1.1,2.8,1.8,5.4,1.6,6s-2.3-1-4.7-3.3c-6-5.7-11.3-7.6-19.5-6.9-11.3.9-17.8,7.4-17.9,17.7,0,9.1,3.9,12.5,21.5,18.6,11.7,4,15,5.8,19.6,10.6s6.3,9.6,6.3,17.5c0,8.2-2.1,13.2-7.6,18.5-6.6,6.3-9.7,7.1-30.1,7.6l-18.3.4Z"/></g></svg>